<svg width="35" height="38" viewBox="0 0 35 38" fill="none" xmlns="http://www.w3.org/2000/svg">
<path d="M9.375 0C10.3906 0 11.25 0.859375 11.25 1.875V5H23.75V1.875C23.75 0.859375 24.6094 0 25.625 0C26.6406 0 27.5 0.859375 27.5 1.875V5H30C32.7344 5 35 7.26562 35 10V32.5C35 35.2344 32.7344 37.5 30 37.5H5C2.26562 37.5 0 35.2344 0 32.5V10C0 7.26562 2.26562 5 5 5H7.5V1.875C7.5 0.859375 8.35938 0 9.375 0ZM30 33.75C30.7031 33.75 31.25 33.2031 31.25 32.5V27.5H24.375V33.75H30ZM31.25 23.75V17.5H24.375V23.75H31.25ZM20.625 23.75V17.5H14.375V23.75H20.625ZM10.625 23.75V17.5H3.75V23.75H10.625ZM3.75 27.5V32.5C3.75 33.2031 4.29688 33.75 5 33.75H10.625V27.5H3.75ZM14.375 27.5V33.75H20.625V27.5H14.375ZM9.375 8.75H5C4.29688 8.75 3.75 9.29688 3.75 10V13.75H31.25V10C31.25 9.29688 30.7031 8.75 30 8.75H9.375Z" fill="#F99746"/>
</svg>
