<svg width="142" height="26" viewBox="0 0 142 26" fill="none" xmlns="http://www.w3.org/2000/svg">
<g clip-path="url(#clip0_2_19)">
<path d="M1.44766 18.931V23.428H2.98771V24.171H0.654541V18.931H1.44381H1.44766Z" fill="#183555"/>
<path d="M4.51995 18.7039L5.19757 18.9695L4.23119 20.91L3.71143 20.6944L4.5161 18.7039H4.51995Z" fill="#183555"/>
<path d="M6.17554 19.4931C6.17554 19.3584 6.22174 19.2429 6.32184 19.1466C6.41809 19.0504 6.53745 19.0003 6.6722 19.0003C6.80696 19.0003 6.92631 19.0504 7.02256 19.1466C7.11882 19.2429 7.16887 19.3622 7.16887 19.497C7.16887 19.6317 7.12267 19.7511 7.02256 19.8473C6.92631 19.9436 6.80696 19.9936 6.6722 19.9936C6.53745 19.9936 6.41809 19.9474 6.32184 19.8473C6.22559 19.7472 6.17554 19.6279 6.17554 19.4931ZM7.05336 20.8638V24.171H6.29104V20.8638H7.05336Z" fill="#183555"/>
<path d="M8.23926 20.8638H9.00543V21.1718C9.27494 20.9061 9.57525 20.7714 9.91021 20.7714C10.2952 20.7714 10.5917 20.8946 10.8111 21.1333C10.9959 21.3412 11.0883 21.6761 11.0883 22.142V24.1672H10.3222V22.323C10.3222 21.9957 10.2798 21.7724 10.1874 21.6453C10.095 21.5221 9.93716 21.4567 9.70615 21.4567C9.45204 21.4567 9.27109 21.5414 9.16714 21.7069C9.06318 21.8725 9.00928 22.1613 9.00928 22.5732V24.1672H8.24311V20.8599L8.23926 20.8638Z" fill="#183555"/>
<path d="M13.0519 21.5799V24.171H12.2857V21.5799H11.9623V20.8638H12.2857V19.6548H13.0519V20.8638H13.6448V21.5799H13.0519Z" fill="#183555"/>
<path d="M17.3871 22.6964H15.0231C15.0424 22.9698 15.1271 23.1854 15.2849 23.3471C15.4428 23.505 15.643 23.582 15.8855 23.582C16.0742 23.582 16.232 23.5396 16.3591 23.4472C16.4861 23.3548 16.6209 23.1892 16.7749 22.9467L17.4217 23.3047C17.3216 23.4741 17.2138 23.6205 17.106 23.7398C16.9944 23.8592 16.875 23.9593 16.7518 24.0363C16.6248 24.1171 16.4861 24.171 16.3398 24.2057C16.1935 24.2403 16.0357 24.2596 15.8663 24.2596C15.3735 24.2596 14.9769 24.1017 14.6766 23.786C14.3801 23.4664 14.23 23.0429 14.23 22.5155C14.23 21.988 14.3763 21.5683 14.6612 21.2449C14.9538 20.9254 15.3427 20.7675 15.8239 20.7675C16.3052 20.7675 16.6941 20.9254 16.979 21.2334C17.2639 21.5414 17.3986 21.9688 17.3986 22.5155V22.6926L17.3871 22.6964ZM16.6055 22.0727C16.5015 21.6646 16.2436 21.4644 15.8355 21.4644C15.7392 21.4644 15.6545 21.4798 15.5737 21.5067C15.4928 21.5337 15.4158 21.576 15.3542 21.6261C15.2849 21.68 15.231 21.7454 15.181 21.8186C15.1348 21.8956 15.0963 21.9765 15.077 22.0727H16.6094H16.6055Z" fill="#183555"/>
<path d="M19.2004 18.4382V24.1671H18.4381V18.4382H19.2004Z" fill="#183555"/>
<path d="M21.1487 18.4382V24.1671H20.3864V18.4382H21.1487Z" fill="#183555"/>
<path d="M22.219 19.4931C22.219 19.3584 22.2652 19.2429 22.3653 19.1466C22.4616 19.0504 22.5809 19.0003 22.7157 19.0003C22.8504 19.0003 22.9698 19.0504 23.066 19.1466C23.1623 19.2429 23.2123 19.3622 23.2123 19.497C23.2123 19.6317 23.1661 19.7511 23.066 19.8473C22.9698 19.9436 22.8504 19.9936 22.7157 19.9936C22.5809 19.9936 22.4616 19.9474 22.3653 19.8473C22.269 19.7472 22.219 19.6279 22.219 19.4931ZM23.0968 20.8638V24.171H22.3345V20.8638H23.0968Z" fill="#183555"/>
<path d="M27.4744 24.094C27.4744 24.2519 27.4667 24.3866 27.4552 24.5021C27.4475 24.6215 27.4321 24.7254 27.4167 24.8178C27.3628 25.0642 27.2588 25.2798 27.0971 25.4608C26.8006 25.8035 26.3848 25.9767 25.8651 25.9767C25.4262 25.9767 25.0642 25.8574 24.7755 25.6225C24.4829 25.3761 24.3096 25.0373 24.2673 24.6061H25.0334C25.0642 24.7678 25.1143 24.891 25.1836 24.9834C25.3415 25.1874 25.5725 25.2914 25.8728 25.2914C26.431 25.2914 26.7121 24.9449 26.7121 24.2596V23.7975C26.4118 24.1094 26.0576 24.2634 25.6649 24.2634C25.2144 24.2634 24.8486 24.1056 24.5599 23.7783C24.275 23.4472 24.1287 23.0352 24.1287 22.5386C24.1287 22.0419 24.2634 21.6492 24.5329 21.3104C24.8217 20.9523 25.2028 20.7752 25.6803 20.7752C26.0961 20.7752 26.4426 20.9331 26.7198 21.2411V20.8676H27.486V24.0979L27.4744 24.094ZM26.7429 22.527C26.7429 22.2036 26.6543 21.9456 26.4849 21.7531C26.3117 21.5568 26.0845 21.4605 25.815 21.4605C25.5301 21.4605 25.2991 21.5683 25.1335 21.7839C24.9795 21.9764 24.9064 22.2229 24.9064 22.5309C24.9064 22.8389 24.9834 23.0776 25.1335 23.2701C25.2952 23.478 25.5263 23.5819 25.815 23.5819C26.1038 23.5819 26.3386 23.478 26.508 23.2662C26.6659 23.0737 26.7429 22.8273 26.7429 22.527Z" fill="#183555"/>
<path d="M31.6633 22.6964H29.2993C29.3186 22.9698 29.4033 23.1854 29.5612 23.3471C29.719 23.5088 29.9192 23.582 30.1618 23.582C30.3504 23.582 30.5083 23.5396 30.6353 23.4472C30.7624 23.3548 30.8971 23.1892 31.0512 22.9467L31.698 23.3047C31.5979 23.4741 31.4901 23.6205 31.3823 23.7398C31.2706 23.8592 31.1513 23.9593 31.0281 24.0363C30.901 24.1171 30.7624 24.171 30.6161 24.2057C30.4698 24.2403 30.3119 24.2596 30.1425 24.2596C29.6497 24.2596 29.2531 24.1017 28.9528 23.786C28.6564 23.4664 28.5062 23.0429 28.5062 22.5155C28.5062 21.988 28.6525 21.5683 28.9374 21.2449C29.23 20.9254 29.6189 20.7675 30.1002 20.7675C30.5814 20.7675 30.9703 20.9254 31.2552 21.2334C31.5401 21.5414 31.6749 21.9688 31.6749 22.5155V22.6926L31.6633 22.6964ZM30.8779 22.0727C30.7739 21.6646 30.516 21.4644 30.1079 21.4644C30.0116 21.4644 29.9269 21.4798 29.8461 21.5067C29.7652 21.5337 29.6882 21.576 29.6266 21.6261C29.5573 21.68 29.5034 21.7454 29.4534 21.8186C29.4072 21.8956 29.3687 21.9765 29.3494 22.0727H30.8817H30.8779Z" fill="#183555"/>
<path d="M32.7145 20.8638H33.4806V21.1718C33.7502 20.9061 34.0505 20.7714 34.3854 20.7714C34.7704 20.7714 35.0669 20.8946 35.2864 21.1333C35.4712 21.3412 35.5636 21.6761 35.5636 22.142V24.1672H34.7974V22.323C34.7974 21.9957 34.755 21.7724 34.6626 21.6453C34.5702 21.5221 34.4124 21.4567 34.1814 21.4567C33.9273 21.4567 33.7463 21.5414 33.6424 21.7069C33.5384 21.8725 33.4845 22.1613 33.4845 22.5732V24.1672H32.7183V20.8599L32.7145 20.8638Z" fill="#183555"/>
<path d="M37.8351 23.451H39.7987V24.171H36.322L38.4627 21.5799H36.7763V20.8638H39.9719L37.8351 23.451Z" fill="#183555"/>
<path d="M43.1674 20.8638H43.9374V24.171H43.1674V23.8245C42.8556 24.1171 42.5129 24.2634 42.1548 24.2634C41.6967 24.2634 41.3194 24.1017 41.0191 23.7706C40.7264 23.4318 40.5763 23.0121 40.5763 22.5078C40.5763 22.0034 40.7264 21.5991 41.0191 21.2719C41.3155 20.9408 41.6851 20.7752 42.1317 20.7752C42.5168 20.7752 42.8594 20.9331 43.1674 21.2488V20.8638ZM41.3579 22.5078C41.3579 22.8235 41.4426 23.0814 41.612 23.2816C41.7852 23.4857 42.0047 23.5819 42.2703 23.5819C42.5553 23.5819 42.7824 23.4857 42.9557 23.2932C43.1289 23.093 43.2175 22.835 43.2175 22.527C43.2175 22.219 43.1289 21.961 42.9557 21.757C42.7824 21.5606 42.5553 21.4644 42.278 21.4644C42.0162 21.4644 41.7968 21.5606 41.6197 21.7608C41.4464 21.9649 41.3579 22.2113 41.3579 22.5078Z" fill="#183555"/>
<path d="M49.909 20.8638H50.679V24.171H49.909V23.8245C49.5971 24.1171 49.2545 24.2634 48.8964 24.2634C48.4383 24.2634 48.0609 24.1017 47.7606 23.7706C47.468 23.4318 47.3179 23.0121 47.3179 22.5078C47.3179 22.0034 47.468 21.5991 47.7606 21.2719C48.0571 20.9408 48.4267 20.7752 48.8733 20.7752C49.2583 20.7752 49.601 20.9331 49.909 21.2488V20.8638ZM48.0994 22.5078C48.0994 22.8235 48.1841 23.0814 48.3536 23.2816C48.5268 23.4857 48.7463 23.5819 49.0119 23.5819C49.2968 23.5819 49.524 23.4857 49.6972 23.2932C49.8705 23.093 49.959 22.835 49.959 22.527C49.959 22.219 49.8705 21.961 49.6972 21.757C49.524 21.5606 49.2968 21.4644 49.0196 21.4644C48.7578 21.4644 48.5384 21.5606 48.3613 21.7608C48.188 21.9649 48.0994 22.2113 48.0994 22.5078Z" fill="#183555"/>
<path d="M51.8572 20.8638H52.6195V21.1602C52.762 21.0101 52.8852 20.9138 52.993 20.8599C53.1046 20.8022 53.2355 20.7714 53.3895 20.7714C53.5897 20.7714 53.7976 20.8368 54.0171 20.9677L53.6706 21.6684C53.5243 21.5645 53.3857 21.5106 53.2471 21.5106C52.8351 21.5106 52.6233 21.8263 52.6233 22.4539V24.1672H51.861V20.8599L51.8572 20.8638Z" fill="#183555"/>
<path d="M55.457 21.5799V24.171H54.6908V21.5799H54.3674V20.8638H54.6908V19.6548H55.457V20.8638H56.0499V21.5799H55.457Z" fill="#183555"/>
<path d="M56.6698 19.4931C56.6698 19.3584 56.716 19.2429 56.8161 19.1466C56.9124 19.0504 57.0317 19.0003 57.1665 19.0003C57.3012 19.0003 57.4206 19.0504 57.5168 19.1466C57.6131 19.2429 57.6631 19.3622 57.6631 19.497C57.6631 19.6317 57.6169 19.7511 57.5168 19.8473C57.4206 19.9436 57.3012 19.9936 57.1665 19.9936C57.0317 19.9936 56.9124 19.9474 56.8161 19.8473C56.7199 19.7511 56.6698 19.6279 56.6698 19.4931ZM57.5476 20.8638V24.171H56.7853V20.8638H57.5476Z" fill="#183555"/>
<path d="M59.5228 21.5799V24.171H58.7528V21.5799H58.4833V20.8638H58.7528V19.5894C58.7528 19.1736 58.8259 18.8771 58.9722 18.7077C59.1724 18.469 59.4612 18.3497 59.8424 18.3497C59.9771 18.3497 60.1465 18.3843 60.3544 18.4652V19.2467L60.2736 19.2082C60.1119 19.1235 59.9733 19.085 59.8655 19.085C59.7307 19.085 59.6383 19.1312 59.5883 19.2313C59.5421 19.3276 59.519 19.5086 59.519 19.7781V20.8676H60.3506V21.5838H59.519L59.5228 21.5799Z" fill="#183555"/>
<path d="M60.8934 19.4931C60.8934 19.3584 60.9396 19.2429 61.0397 19.1466C61.136 19.0504 61.2553 19.0003 61.3901 19.0003C61.5248 19.0003 61.6442 19.0504 61.7405 19.1466C61.8367 19.2429 61.8868 19.3622 61.8868 19.497C61.8868 19.6317 61.8406 19.7511 61.7405 19.8473C61.6442 19.9436 61.5248 19.9936 61.3901 19.9936C61.2553 19.9936 61.136 19.9474 61.0397 19.8473C60.9435 19.7511 60.8934 19.6279 60.8934 19.4931ZM61.7713 20.8638V24.171H61.0089V20.8638H61.7713Z" fill="#183555"/>
<path d="M65.5328 21.0101V22.0226C65.3595 21.8109 65.2017 21.6684 65.0631 21.5876C64.9245 21.5029 64.7666 21.4644 64.5856 21.4644C64.3007 21.4644 64.0582 21.5645 63.8657 21.7647C63.677 21.9687 63.5808 22.219 63.5808 22.5232C63.5808 22.8273 63.6732 23.0853 63.858 23.2855C64.0428 23.4857 64.2776 23.5819 64.5664 23.5819C64.7512 23.5819 64.9129 23.5473 65.0515 23.4664C65.1863 23.3894 65.3441 23.2393 65.5289 23.016V24.0247C65.2171 24.1826 64.9091 24.2634 64.5972 24.2634C64.089 24.2634 63.6616 24.1017 63.3151 23.7706C62.9686 23.4356 62.7992 23.0237 62.7992 22.5347C62.7992 22.0457 62.9724 21.6222 63.3228 21.2834C63.6693 20.9446 64.1005 20.7752 64.6049 20.7752C64.9322 20.7752 65.2402 20.8561 65.5289 21.0101H65.5328Z" fill="#183555"/>
<path d="M66.3683 19.4931C66.3683 19.3584 66.4145 19.2429 66.5146 19.1466C66.6108 19.0504 66.7302 19.0003 66.8649 19.0003C66.9997 19.0003 67.1191 19.0504 67.2153 19.1466C67.3116 19.2429 67.3616 19.3622 67.3616 19.497C67.3616 19.6317 67.3154 19.7511 67.2153 19.8473C67.1191 19.9436 66.9997 19.9936 66.8649 19.9936C66.7302 19.9936 66.6108 19.9474 66.5146 19.8473C66.4183 19.7511 66.3683 19.6279 66.3683 19.4931ZM67.25 20.8638V24.171H66.4876V20.8638H67.25Z" fill="#183555"/>
<path d="M70.8652 20.8638H71.6352V24.171H70.8652V23.8245C70.5533 24.1171 70.2107 24.2634 69.8526 24.2634C69.3944 24.2634 69.0171 24.1017 68.7168 23.7706C68.4242 23.4318 68.274 23.0121 68.274 22.5078C68.274 22.0034 68.4242 21.5991 68.7168 21.2719C69.0133 20.9408 69.3829 20.7752 69.8295 20.7752C70.2145 20.7752 70.5572 20.9331 70.8652 21.2488V20.8638ZM69.0556 22.5078C69.0556 22.8235 69.1403 23.0814 69.3097 23.2816C69.483 23.4857 69.7024 23.5819 69.9681 23.5819C70.253 23.5819 70.4802 23.4857 70.6534 23.2932C70.8267 23.093 70.9152 22.835 70.9152 22.527C70.9152 22.219 70.8267 21.961 70.6534 21.757C70.4802 21.5606 70.253 21.4644 69.9758 21.4644C69.714 21.4644 69.4945 21.5606 69.3174 21.7608C69.1442 21.9649 69.0556 22.2113 69.0556 22.5078Z" fill="#183555"/>
<path d="M73.5757 18.4382V24.1671H72.8134V18.4382H73.5757Z" fill="#183555"/>
<path d="M77.7684 22.6964H75.4045C75.4237 22.9698 75.5084 23.1854 75.6663 23.3471C75.8241 23.5088 76.0243 23.582 76.2669 23.582C76.4555 23.582 76.6134 23.5396 76.7404 23.4472C76.8675 23.3548 77.0023 23.1892 77.1563 22.9467L77.8031 23.3047C77.703 23.4741 77.5952 23.6205 77.4874 23.7398C77.3757 23.8592 77.2564 23.9593 77.1332 24.0363C77.0061 24.1171 76.8675 24.171 76.7212 24.2057C76.5749 24.2403 76.417 24.2596 76.2476 24.2596C75.7548 24.2596 75.3583 24.1017 75.0579 23.786C74.7615 23.4664 74.6113 23.0429 74.6113 22.5155C74.6113 21.988 74.7576 21.5683 75.0425 21.2449C75.3352 20.9254 75.724 20.7675 76.2053 20.7675C76.6865 20.7675 77.0754 20.9254 77.3603 21.2334C77.6452 21.5414 77.78 21.9688 77.78 22.5155V22.6926L77.7684 22.6964ZM76.983 22.0727C76.879 21.6646 76.6211 21.4644 76.213 21.4644C76.1167 21.4644 76.032 21.4798 75.9512 21.5067C75.8703 21.5337 75.7933 21.576 75.7317 21.6261C75.6624 21.68 75.6085 21.7454 75.5585 21.8186C75.5123 21.8956 75.4738 21.9765 75.4545 22.0727H76.9869H76.983Z" fill="#183555"/>
<path d="M81.942 25.969H81.1797V20.8638H81.942V21.2257C82.2423 20.9254 82.585 20.7714 82.97 20.7714C83.4243 20.7714 83.7978 20.9369 84.0904 21.2757C84.3868 21.6068 84.5408 22.0265 84.5408 22.5347C84.5408 23.0429 84.3907 23.4433 84.0942 23.7706C83.8016 24.0979 83.432 24.2596 82.9815 24.2596C82.5965 24.2596 82.25 24.1056 81.942 23.7937V25.9652V25.969ZM83.7554 22.5347C83.7554 22.219 83.6707 21.961 83.4975 21.7608C83.3242 21.5606 83.1047 21.4605 82.8391 21.4605C82.558 21.4605 82.3309 21.5568 82.1576 21.7493C81.9844 21.9456 81.8958 22.1998 81.8958 22.5193C81.8958 22.8389 81.9844 23.0853 82.1576 23.2855C82.327 23.4818 82.558 23.5781 82.8352 23.5781C83.1009 23.5781 83.3165 23.4818 83.4936 23.2816C83.6669 23.0814 83.7554 22.835 83.7554 22.5347Z" fill="#183555"/>
<path d="M85.4456 19.4931C85.4456 19.3584 85.4918 19.2429 85.5919 19.1466C85.6881 19.0504 85.8075 19.0003 85.9422 19.0003C86.077 19.0003 86.1963 19.0504 86.2926 19.1466C86.3888 19.2429 86.4389 19.3622 86.4389 19.497C86.4389 19.6317 86.3927 19.7511 86.2926 19.8473C86.1963 19.9436 86.077 19.9936 85.9422 19.9936C85.8075 19.9936 85.6881 19.9474 85.5919 19.8473C85.4956 19.7472 85.4456 19.6279 85.4456 19.4931ZM86.3234 20.8638V24.171H85.5611V20.8638H86.3234Z" fill="#183555"/>
<path d="M88.2678 20.8638V22.7619C88.2678 23.3086 88.4872 23.582 88.9184 23.582C89.3496 23.582 89.5652 23.3086 89.5652 22.7619V20.8638H90.3314V22.7812C90.3314 23.0468 90.3006 23.274 90.2352 23.4665C90.1697 23.6359 90.0619 23.7937 89.9041 23.9324C89.6461 24.1557 89.3188 24.2673 88.9223 24.2673C88.5257 24.2673 88.1985 24.1595 87.9443 23.9324C87.7865 23.7937 87.671 23.6397 87.6055 23.4665C87.5439 23.3086 87.5093 23.0815 87.5093 22.7812V20.8638H88.2716H88.2678ZM87.7788 19.2391L88.4949 18.8656L89.4305 20.0976L89.0108 20.3556L87.7826 19.2391H87.7788Z" fill="#183555"/>
<path d="M95.7909 21.4297L95.1595 21.7647C95.0633 21.5606 94.9401 21.4605 94.7899 21.4605C94.7206 21.4605 94.659 21.4836 94.6128 21.5298C94.5627 21.576 94.5358 21.6338 94.5358 21.7069C94.5358 21.834 94.6859 21.961 94.9786 22.0843C95.3828 22.2575 95.6523 22.4192 95.7948 22.5655C95.9372 22.7118 96.0065 22.912 96.0065 23.1623C96.0065 23.478 95.891 23.7475 95.6562 23.9593C95.429 24.1633 95.1518 24.2634 94.8284 24.2634C94.274 24.2634 93.8813 23.9939 93.6503 23.4549L94.3048 23.1546C94.3972 23.3124 94.4626 23.4125 94.5127 23.4549C94.6051 23.5434 94.7167 23.5819 94.8438 23.5819C95.1018 23.5819 95.2327 23.4664 95.2327 23.2316C95.2327 23.0968 95.1326 22.9698 94.9362 22.8504C94.8554 22.8158 94.7783 22.7773 94.7052 22.7426C94.632 22.708 94.5473 22.6656 94.4742 22.631C94.2509 22.5232 94.093 22.4115 94.0006 22.3037C93.889 22.1651 93.8312 21.988 93.8312 21.7685C93.8312 21.4836 93.9275 21.2449 94.1238 21.0563C94.3279 20.8676 94.5704 20.7714 94.8554 20.7714C95.2789 20.7714 95.5907 20.9908 95.7986 21.4297H95.7909Z" fill="#183555"/>
<path d="M96.7881 19.4931C96.7881 19.3584 96.8343 19.2429 96.9344 19.1466C97.0306 19.0504 97.15 19.0003 97.2847 19.0003C97.4195 19.0003 97.5389 19.0504 97.6351 19.1466C97.7314 19.2429 97.7814 19.3622 97.7814 19.497C97.7814 19.6317 97.7352 19.7511 97.6351 19.8473C97.5389 19.9436 97.4195 19.9936 97.2847 19.9936C97.15 19.9936 97.0306 19.9474 96.9344 19.8473C96.8381 19.7472 96.7881 19.6279 96.7881 19.4931ZM97.6659 20.8638V24.171H96.9036V20.8638H97.6659Z" fill="#183555"/>
<path d="M101.424 21.0101V22.0226C101.25 21.8109 101.093 21.6684 100.954 21.5876C100.815 21.5029 100.657 21.4644 100.477 21.4644C100.192 21.4644 99.9491 21.5645 99.7566 21.7647C99.5679 21.9687 99.4716 22.219 99.4716 22.5232C99.4716 22.8273 99.564 23.0853 99.7488 23.2855C99.9337 23.4857 100.169 23.5819 100.457 23.5819C100.642 23.5819 100.804 23.5473 100.942 23.4664C101.077 23.3894 101.235 23.2393 101.42 23.016V24.0247C101.108 24.1826 100.8 24.2634 100.488 24.2634C99.9799 24.2634 99.5525 24.1017 99.206 23.7706C98.8595 23.4356 98.6901 23.0237 98.6901 22.5347C98.6901 22.0457 98.8633 21.6222 99.2137 21.2834C99.5602 20.9446 99.9914 20.7752 100.496 20.7752C100.823 20.7752 101.131 20.8561 101.42 21.0101H101.424Z" fill="#183555"/>
<path d="M103.137 20.8638V22.7619C103.137 23.3086 103.356 23.582 103.788 23.582C104.219 23.582 104.434 23.3086 104.434 22.7619V20.8638H105.201V22.7811C105.201 23.0468 105.17 23.2739 105.104 23.4664C105.039 23.6359 104.931 23.7937 104.773 23.9323C104.515 24.1556 104.188 24.2673 103.791 24.2673C103.395 24.2673 103.068 24.1595 102.813 23.9323C102.656 23.7937 102.54 23.6397 102.475 23.4664C102.413 23.3086 102.378 23.0814 102.378 22.7811V20.8638H103.141H103.137Z" fill="#183555"/>
<path d="M106.379 20.8638H107.141V21.1602C107.283 21.0101 107.407 20.9138 107.514 20.8599C107.626 20.8022 107.757 20.7714 107.911 20.7714C108.111 20.7714 108.319 20.8368 108.539 20.9677L108.192 21.6684C108.046 21.5645 107.907 21.5106 107.769 21.5106C107.357 21.5106 107.145 21.8263 107.145 22.4539V24.1672H106.383V20.8599L106.379 20.8638Z" fill="#183555"/>
<path d="M111.63 20.8638H112.4V24.171H111.63V23.8245C111.318 24.1171 110.976 24.2634 110.618 24.2634C110.16 24.2634 109.782 24.1017 109.482 23.7706C109.189 23.4318 109.039 23.0121 109.039 22.5078C109.039 22.0034 109.189 21.5991 109.482 21.2719C109.778 20.9408 110.148 20.7752 110.595 20.7752C110.98 20.7752 111.322 20.9331 111.63 21.2488V20.8638ZM109.821 22.5078C109.821 22.8235 109.905 23.0814 110.075 23.2816C110.248 23.4857 110.468 23.5819 110.733 23.5819C111.018 23.5819 111.245 23.4857 111.419 23.2932C111.592 23.093 111.68 22.835 111.68 22.527C111.68 22.219 111.592 21.961 111.419 21.757C111.245 21.5606 111.018 21.4644 110.741 21.4644C110.479 21.4644 110.26 21.5606 110.083 21.7608C109.909 21.9649 109.821 22.2113 109.821 22.5078Z" fill="#183555"/>
<path d="M116.697 25.969H115.935V20.8638H116.697V21.2257C116.997 20.9254 117.34 20.7714 117.725 20.7714C118.179 20.7714 118.553 20.9369 118.845 21.2757C119.142 21.6068 119.296 22.0265 119.296 22.5347C119.296 23.0429 119.146 23.4433 118.849 23.7706C118.557 24.0979 118.187 24.2596 117.737 24.2596C117.352 24.2596 117.005 24.1056 116.697 23.7937V25.9652V25.969ZM118.514 22.5347C118.514 22.219 118.43 21.961 118.256 21.7608C118.083 21.5606 117.864 21.4605 117.598 21.4605C117.317 21.4605 117.09 21.5568 116.916 21.7493C116.743 21.9456 116.655 22.1998 116.655 22.5193C116.655 22.8389 116.743 23.0853 116.916 23.2855C117.086 23.4818 117.317 23.5781 117.594 23.5781C117.86 23.5781 118.075 23.4818 118.252 23.2816C118.43 23.0814 118.514 22.835 118.514 22.5347Z" fill="#183555"/>
<path d="M123.327 22.6964H120.963C120.982 22.9698 121.067 23.1854 121.225 23.3471C121.383 23.5088 121.583 23.582 121.825 23.582C122.014 23.582 122.172 23.5396 122.299 23.4472C122.426 23.3548 122.561 23.1892 122.715 22.9467L123.362 23.3047C123.261 23.4741 123.154 23.6205 123.046 23.7398C122.934 23.8592 122.815 23.9593 122.692 24.0363C122.565 24.1171 122.426 24.171 122.28 24.2057C122.133 24.2403 121.976 24.2596 121.806 24.2596C121.313 24.2596 120.917 24.1017 120.616 23.786C120.32 23.4664 120.17 23.0429 120.17 22.5155C120.17 21.988 120.316 21.5683 120.601 21.2449C120.894 20.9254 121.282 20.7675 121.764 20.7675C122.245 20.7675 122.634 20.9254 122.919 21.2334C123.204 21.5414 123.338 21.9688 123.338 22.5155V22.6926L123.327 22.6964ZM122.545 22.0727C122.441 21.6646 122.183 21.4644 121.775 21.4644C121.679 21.4644 121.594 21.4798 121.513 21.5067C121.433 21.5337 121.356 21.576 121.294 21.6261C121.225 21.68 121.171 21.7454 121.121 21.8186C121.075 21.8956 121.036 21.9765 121.017 22.0727H122.549H122.545Z" fill="#183555"/>
<path d="M124.382 20.8638H125.144V21.1602C125.287 21.0101 125.41 20.9138 125.518 20.8599C125.629 20.8022 125.76 20.7714 125.914 20.7714C126.114 20.7714 126.322 20.8368 126.542 20.9677L126.195 21.6684C126.049 21.5645 125.91 21.5106 125.772 21.5106C125.36 21.5106 125.148 21.8263 125.148 22.4539V24.1672H124.386V20.8599L124.382 20.8638Z" fill="#183555"/>
<path d="M130.342 21.5799V24.171H129.576V21.5799H129.252V20.8638H129.576V19.6548H130.342V20.8638H130.935V21.5799H130.342Z" fill="#183555"/>
<path d="M132.432 20.8638V22.7619C132.432 23.3086 132.652 23.582 133.083 23.582C133.514 23.582 133.73 23.3086 133.73 22.7619V20.8638H134.496V22.7811C134.496 23.0468 134.465 23.2739 134.4 23.4664C134.334 23.6359 134.227 23.7937 134.069 23.9323C133.811 24.1556 133.484 24.2673 133.087 24.2673C132.69 24.2673 132.363 24.1595 132.109 23.9323C131.951 23.7937 131.836 23.6397 131.77 23.4664C131.709 23.3086 131.674 23.0814 131.674 22.7811V20.8638H132.436H132.432Z" fill="#183555"/>
<path d="M136.46 21.5799V24.171H135.694V21.5799H135.37V20.8638H135.694V19.6548H136.46V20.8638H137.053V21.5799H136.46Z" fill="#183555"/>
<path d="M138.577 21.5799V24.171H137.811V21.5799H137.488V20.8638H137.811V19.6548H138.577V20.8638H139.17V21.5799H138.577Z" fill="#183555"/>
<path d="M139.786 19.4931C139.786 19.3584 139.832 19.2429 139.932 19.1466C140.029 19.0504 140.148 19.0003 140.283 19.0003C140.418 19.0003 140.537 19.0504 140.633 19.1466C140.729 19.2429 140.779 19.3622 140.779 19.497C140.779 19.6317 140.733 19.7511 140.633 19.8473C140.537 19.9436 140.418 19.9936 140.283 19.9936C140.148 19.9936 140.029 19.9474 139.932 19.8473C139.836 19.7472 139.786 19.6279 139.786 19.4931ZM140.664 20.8638V24.171H139.902V20.8638H140.664Z" fill="#183555"/>
<path d="M8.42405 11.585V14.8614H5.84833C3.44585 14.8614 1.98666 13.3907 1.98666 10.9767V6.88015H0V6.00617L4.86655 0.823914H5.63657V4.00026H8.3663V6.88015H5.72897V10.3376C5.72897 11.1153 6.19869 11.585 6.98796 11.585H8.42405Z" fill="#183555"/>
<path d="M10.0258 10.199V4.00031H13.7681V10.0373C13.7681 11.1808 14.3879 11.8584 15.3851 11.8584C16.3823 11.8584 16.9906 11.1731 16.9906 10.0373V4.00031H20.7329V10.199C20.7329 13.2367 18.5961 15.2157 15.389 15.2157C12.1818 15.2157 10.0296 13.2329 10.0296 10.199H10.0258Z" fill="#183555"/>
<path d="M26.6851 9.41737C26.6851 6.05622 29.1839 3.65759 32.6913 3.65759C35.7483 3.65759 38.0353 5.58265 38.4472 8.47409H34.8012C34.4855 7.58856 33.6577 7.01104 32.6798 7.01104C31.363 7.01104 30.4274 8.01207 30.4274 9.42507C30.4274 10.8381 31.3784 11.8622 32.6798 11.8622C33.6808 11.8622 34.497 11.2462 34.805 10.2798H38.4819C38.0584 13.229 35.7367 15.2156 32.6759 15.2156C29.1954 15.2156 26.6813 12.7747 26.6813 9.41352L26.6851 9.41737Z" fill="#183555"/>
<path d="M50.8331 8.32013V14.8615H47.0908V8.75519C47.0908 7.5039 46.6481 6.86478 45.674 6.86478C44.5382 6.86478 43.8336 7.66946 43.8336 9.0632V14.8653H40.0913V0.0770264H43.8336V4.71642C44.6344 4.0696 45.6509 3.67689 46.7328 3.67689C49.2276 3.67689 50.8293 5.50569 50.8293 8.32013H50.8331Z" fill="#183555"/>
<path d="M64.1852 10.3183H56.1193C56.3657 11.5657 57.1588 12.2087 58.3369 12.2087C59.2109 12.2087 59.9424 11.8237 60.3005 11.1923H64.0235C63.2574 13.6718 61.0628 15.2195 58.3369 15.2195C54.9488 15.2195 52.4347 12.7439 52.4347 9.42123C52.4347 6.09858 54.9257 3.64606 58.3369 3.64606C61.7481 3.64606 64.2623 6.14093 64.2623 9.32883C64.2623 9.65609 64.2353 9.98335 64.1852 10.3183ZM56.1886 8.24695H60.5815C60.2543 7.16121 59.4689 6.576 58.3408 6.576C57.2127 6.576 56.4927 7.16506 56.1886 8.24695Z" fill="#183555"/>
<path d="M81.0642 8.23927V14.8615H77.3219V8.75518C77.3219 7.4885 76.8483 6.86478 75.9051 6.86478C74.7385 6.86478 74.0647 7.681 74.0647 9.06319V14.8653H70.3224V4.00029H72.9482L73.4641 5.12067C74.2726 4.2159 75.4777 3.67688 76.883 3.67688C79.4048 3.67688 81.0604 5.47103 81.0604 8.23927H81.0642Z" fill="#183555"/>
<path d="M94.4164 10.3183H86.3505C86.5969 11.5657 87.39 12.2087 88.5681 12.2087C89.4421 12.2087 90.1736 11.8237 90.5317 11.1923H94.2547C93.4886 13.6718 91.294 15.2195 88.5681 15.2195C85.18 15.2195 82.6659 12.7439 82.6659 9.42123C82.6659 6.09858 85.1569 3.64606 88.5681 3.64606C91.9793 3.64606 94.4934 6.14093 94.4934 9.32883C94.4934 9.65609 94.4665 9.98335 94.4164 10.3183ZM86.4159 8.24695H90.8089C90.4816 7.16121 89.6962 6.576 88.5681 6.576C87.44 6.576 86.7201 7.16506 86.4159 8.24695Z" fill="#183555"/>
<path d="M99.9529 11.3039H103.557C103.557 12.0971 104.107 12.4628 104.819 12.4628C105.366 12.4628 105.886 12.1818 105.886 11.6196C105.886 10.9921 105.066 10.815 104.019 10.6417C102.332 10.3722 100.103 9.864 100.103 7.22667C100.103 5.05135 101.955 3.64606 104.742 3.64606C107.53 3.64606 109.301 5.1168 109.343 7.31522H105.84C105.84 6.6222 105.37 6.29879 104.696 6.29879C104.096 6.29879 103.695 6.5991 103.695 7.10346C103.695 7.71948 104.527 7.86578 105.559 8.05059C107.272 8.35475 109.555 8.71281 109.555 11.4656C109.555 13.7334 107.638 15.2195 104.75 15.2195C101.863 15.2195 99.9914 13.6564 99.9567 11.3039H99.9529Z" fill="#183555"/>
<path d="M114.714 8.94002C114.668 9.14793 114.576 9.6908 114.818 10.3068C115.091 10.9998 115.607 11.3425 115.715 11.4118C116.254 11.7545 116.778 11.7583 117.005 11.7583C117.136 11.7583 118.106 11.7429 118.818 11.0345C119.242 10.611 119.45 10.0681 119.577 9.7293C119.627 9.60224 119.662 9.49059 119.685 9.41359C119.858 9.99496 120.016 10.6533 120.139 11.3733C120.32 12.4321 120.382 13.3908 120.382 14.2147C119.885 14.5342 118.691 15.1965 117.051 15.208C116.524 15.208 115.161 15.2042 113.775 14.2994C113.509 14.1261 112.346 13.333 111.669 11.7545C110.964 10.1143 111.222 8.63971 111.341 8.1084C112.466 8.38561 113.586 8.66282 114.71 8.94002H114.714Z" fill="url(#paint0_linear_2_19)"/>
<path d="M123.666 11.6043C123.577 10.8535 123.462 10.1297 123.269 9.33655C123.05 8.42407 122.857 7.9582 122.799 7.82345C122.719 7.63094 122.457 7.03033 121.979 6.32576C121.675 5.88299 121.39 5.46718 120.878 5.05137C120.666 4.87811 120.474 4.75106 120.335 4.67021C119.823 4.3545 118.676 3.73463 117.109 3.71153C115.838 3.68843 114.911 4.06574 114.63 4.18894C114.187 4.38145 112.67 5.10527 111.807 6.79932C111.542 7.31524 111.411 7.7888 111.338 8.11991C112.462 8.39712 113.582 8.67433 114.706 8.95153C114.753 8.74748 114.914 8.17381 115.453 7.7118C116.031 7.21898 116.666 7.17278 116.87 7.16123C117.479 7.12658 117.929 7.33064 118.098 7.40764C118.491 7.58859 118.734 7.82345 118.788 7.87735C119.022 8.10451 119.142 8.32397 119.315 8.62427C119.427 8.82063 119.558 9.08244 119.677 9.40585C119.839 9.97182 119.989 10.5917 120.108 11.2616C120.374 12.7439 120.428 14.0837 120.393 15.2157C121.54 15.2157 122.692 15.2157 123.839 15.2195C123.858 13.7334 123.762 12.509 123.658 11.6158L123.666 11.6043Z" fill="#F18D00"/>
<path d="M129.718 3.65375C129.433 3.8501 128.817 4.20431 127.989 4.18891C127.216 4.17736 126.638 3.84625 126.353 3.65375V14.9692H129.714V3.65375H129.718Z" fill="#F18D00"/>
<path d="M128.055 2.94149C128.867 2.94149 129.526 2.28301 129.526 1.47074C129.526 0.658475 128.867 0 128.055 0C127.243 0 126.584 0.658475 126.584 1.47074C126.584 2.28301 127.243 2.94149 128.055 2.94149Z" fill="#F18D00"/>
<path d="M136.887 14.9423C137.838 14.9423 138.608 14.1718 138.608 13.2213C138.608 12.2708 137.838 11.5003 136.887 11.5003C135.937 11.5003 135.166 12.2708 135.166 13.2213C135.166 14.1718 135.937 14.9423 136.887 14.9423Z" fill="#F18D00"/>
<path d="M135.104 10.0834C135.104 7.80803 136.233 6.9918 137.164 6.31418C137.834 5.83677 138.396 5.4325 138.396 4.62013C138.396 3.7654 137.757 3.23024 136.999 3.23024C136.24 3.23024 135.513 3.7423 135.513 4.68173H132.013C132.013 1.69404 134.277 0.103943 137.01 0.103943C139.744 0.103943 142 1.8519 142 4.58548C142 6.48744 140.941 7.30366 139.994 8.04288C139.247 8.6204 138.585 9.12862 138.585 10.0834L138.6 11.0383C138.392 10.8881 137.761 10.4338 136.849 10.4377C135.951 10.4377 135.328 10.8881 135.12 11.0383C135.116 10.7341 135.108 10.3876 135.104 10.0834Z" fill="#F18D00"/>
</g>
<defs>
<linearGradient id="paint0_linear_2_19" x1="111.203" y1="11.6621" x2="120.385" y2="11.6621" gradientUnits="userSpaceOnUse">
<stop offset="0.63" stop-color="#F18D00"/>
<stop offset="0.76" stop-color="#ED8A01"/>
<stop offset="0.86" stop-color="#E48306"/>
<stop offset="0.94" stop-color="#D3780E"/>
<stop offset="1" stop-color="#C56E16"/>
</linearGradient>
<clipPath id="clip0_2_19">
<rect width="142" height="26" fill="white"/>
</clipPath>
</defs>
</svg>
