<svg width="727" height="658" viewBox="0 0 727 658" fill="none" xmlns="http://www.w3.org/2000/svg">
<g clip-path="url(#clip0_273_9399)">
<path opacity="0.2" d="M483.406 570.085C591.087 507.074 631.421 380.424 625.069 279.466C623.679 257.367 612.532 117.593 492.284 37.1752C380.725 -37.4286 242.798 -15.7828 155.511 37.1752C110.444 64.5157 84.0358 97.0749 73.4992 111.154C3.77946 204.312 -18.092 352.95 54.9772 465.086C113.099 554.285 205.63 581.008 236.575 589.945C268.515 599.17 379.114 631.112 483.404 570.085H483.406Z" fill="url(#paint0_linear_273_9399)"/>
<path opacity="0.2" d="M306.962 620.159C433.522 656.058 567.265 624.89 648.57 536.288C781.286 391.66 718.181 155.123 617.9 68.4998C596.557 50.0621 574.311 39.0942 567.808 35.9977C458.805 -15.8968 342.782 35.1473 311.177 49.0531C277.026 64.077 160.341 115.674 120.493 237.653C105.694 282.95 102.605 334.175 115.023 390.214C133.26 472.506 175.746 524.708 185.735 536.088C230.05 586.579 280.291 609.963 306.962 620.159Z" fill="url(#paint1_linear_273_9399)"/>
<path opacity="0.2" d="M655.809 405.833C656.751 403.181 657.693 400.503 658.635 397.825C686.33 310.558 680.611 234.767 658.635 201.226C645.515 181.201 627.963 166.061 627.963 166.061C627.963 166.061 607.457 149.197 580.739 137.461C453.383 81.5056 145.914 120.826 56.7375 295.336C-15.5309 436.749 89.4628 601.491 218.406 657H406.948C527.065 611.532 623.728 495.183 655.834 405.858L655.809 405.833Z" fill="url(#paint2_linear_273_9399)"/>
</g>
<defs>
<linearGradient id="paint0_linear_273_9399" x1="317.675" y1="606.546" x2="317.675" y2="-11.0004" gradientUnits="userSpaceOnUse">
<stop stop-color="#7094FB"/>
<stop offset="1" stop-color="#F31E61"/>
</linearGradient>
<linearGradient id="paint1_linear_273_9399" x1="415.652" y1="634.762" x2="415.652" y2="13.2089" gradientUnits="userSpaceOnUse">
<stop stop-color="#7094FB"/>
<stop offset="1" stop-color="#F31E61"/>
</linearGradient>
<linearGradient id="paint2_linear_273_9399" x1="110.702" y1="579.022" x2="619.1" y2="152.46" gradientUnits="userSpaceOnUse">
<stop stop-color="#F31E61"/>
<stop offset="1" stop-color="#7094FB"/>
</linearGradient>
<clipPath id="clip0_273_9399">
<rect width="727" height="658" fill="white"/>
</clipPath>
</defs>
</svg>
