<svg width="27" height="29" viewBox="0 0 27 29" fill="none" xmlns="http://www.w3.org/2000/svg">
<path d="M7.03125 0C7.79297 0 8.4375 0.644531 8.4375 1.40625V3.75H17.8125V1.40625C17.8125 0.644531 18.457 0 19.2188 0C19.9805 0 20.625 0.644531 20.625 1.40625V3.75H22.5C24.5508 3.75 26.25 5.44922 26.25 7.5V24.375C26.25 26.4258 24.5508 28.125 22.5 28.125H3.75C1.69922 28.125 0 26.4258 0 24.375V7.5C0 5.44922 1.69922 3.75 3.75 3.75H5.625V1.40625C5.625 0.644531 6.26953 0 7.03125 0ZM22.5 25.3125C23.0273 25.3125 23.4375 24.9023 23.4375 24.375V20.625H18.2812V25.3125H22.5ZM23.4375 17.8125V13.125H18.2812V17.8125H23.4375ZM15.4688 17.8125V13.125H10.7812V17.8125H15.4688ZM7.96875 17.8125V13.125H2.8125V17.8125H7.96875ZM2.8125 20.625V24.375C2.8125 24.9023 3.22266 25.3125 3.75 25.3125H7.96875V20.625H2.8125ZM10.7812 20.625V25.3125H15.4688V20.625H10.7812ZM7.03125 6.5625H3.75C3.22266 6.5625 2.8125 6.97266 2.8125 7.5V10.3125H23.4375V7.5C23.4375 6.97266 23.0273 6.5625 22.5 6.5625H7.03125Z" fill="#F99746"/>
</svg>
