<svg width="34" height="27" viewBox="0 0 34 27" fill="none" xmlns="http://www.w3.org/2000/svg">
<path d="M5.625 1.40625C5.625 0.644531 6.26953 0 7.03125 0C7.79297 0 8.4375 0.644531 8.4375 1.40625H9.84375H10.0195C10.7227 1.46484 11.25 2.10938 11.25 2.8125V5.625H22.5V2.8125V2.69531C22.5586 1.93359 23.2031 1.40625 23.9062 1.40625H25.3125C25.3125 0.644531 25.957 0 26.7188 0C27.4805 0 28.125 0.644531 28.125 1.40625V2.8125V2.98828C28.0664 3.69141 27.4219 4.21875 26.7188 4.21875H25.3125V7.5H26.7188C27.4805 7.5 28.125 8.14453 28.125 8.90625V12.1875H30.9375V7.03125C30.9375 6.26953 31.582 5.625 32.3438 5.625C33.1055 5.625 33.75 6.26953 33.75 7.03125V13.5938C33.75 14.3555 33.1055 15 32.3438 15H30V19.2188C30 19.9805 29.3555 20.625 28.5938 20.625H26.25V24.8438C26.25 25.6055 25.6055 26.25 24.8438 26.25H20.1562C19.3945 26.25 18.75 25.6055 18.75 24.8438C18.75 24.082 19.3945 23.4375 20.1562 23.4375H23.4375V20.625H10.3125V23.4375H13.5938C14.3555 23.4375 15 24.082 15 24.8438C15 25.6055 14.3555 26.25 13.5938 26.25H8.90625C8.14453 26.25 7.5 25.6055 7.5 24.8438V20.625H5.15625C4.39453 20.625 3.75 19.9805 3.75 19.2188V15H1.40625C0.644531 15 0 14.3555 0 13.5938V7.03125C0 6.26953 0.644531 5.625 1.40625 5.625C2.16797 5.625 2.8125 6.26953 2.8125 7.03125V12.1875H5.625V8.90625C5.625 8.14453 6.26953 7.5 7.03125 7.5H8.4375V4.21875H7.03125C6.26953 4.21875 5.625 3.57422 5.625 2.8125V1.40625ZM11.25 8.90625C11.25 9.66797 10.6055 10.3125 9.84375 10.3125H8.4375V13.5938C8.4375 14.3555 7.79297 15 7.03125 15H6.5625V17.8125H27.1875V15H26.7188C25.957 15 25.3125 14.3555 25.3125 13.5938V10.3125H23.9062C23.1445 10.3125 22.5 9.66797 22.5 8.90625V8.4375H11.25V8.90625ZM11.25 12.1875C11.25 11.6602 11.6602 11.25 12.1875 11.25H14.0625C14.5898 11.25 15 11.6602 15 12.1875V15C15 15.5273 14.5898 15.9375 14.0625 15.9375H12.1875C11.6602 15.9375 11.25 15.5273 11.25 15V12.1875ZM19.6875 11.25H21.5625C22.0898 11.25 22.5 11.6602 22.5 12.1875V15C22.5 15.5273 22.0898 15.9375 21.5625 15.9375H19.6875C19.1602 15.9375 18.75 15.5273 18.75 15V12.1875C18.75 11.6602 19.1602 11.25 19.6875 11.25Z" fill="#F99746"/>
</svg>
