<svg width="34" height="27" viewBox="0 0 34 27" fill="none" xmlns="http://www.w3.org/2000/svg">
<path d="M11.8125 2.10938C11.127 2.10938 10.5469 2.68945 10.5469 3.375C10.5469 4.06055 11.127 4.64062 11.8125 4.64062C12.498 4.64062 13.0781 4.06055 13.0781 3.375C13.0781 2.68945 12.498 2.10938 11.8125 2.10938ZM11.8125 6.75C9.9668 6.75 8.4375 5.2207 8.4375 3.375C8.4375 1.5293 9.9668 0 11.8125 0C13.6582 0 15.1875 1.5293 15.1875 3.375C15.1875 4.27148 14.8711 5.0625 14.291 5.69531L15.7148 8.70117C16.3477 8.54297 17.0332 8.4375 17.7188 8.4375C19.7754 8.4375 21.6738 9.22852 22.9922 10.5996L27.1055 7.59375C27.0527 7.33008 27 7.01367 27 6.75C27 4.9043 28.5293 3.375 30.375 3.375C32.2207 3.375 33.75 4.9043 33.75 6.75C33.75 8.5957 32.2207 10.125 30.375 10.125C29.7422 10.125 29.1094 9.9668 28.582 9.59766L24.5215 12.6035C25.0488 13.6582 25.3125 14.8184 25.3125 16.0312C25.3125 16.9805 25.1543 17.9297 24.7852 18.7734L28.3711 20.9355C28.8984 20.5137 29.6367 20.25 30.375 20.25C32.2207 20.25 33.75 21.7793 33.75 23.625C33.75 25.4707 32.2207 27 30.375 27C28.5293 27 27 25.4707 27 23.625C27 23.4668 27 23.2559 27.0527 23.0977L23.4668 20.9883C22.0957 22.623 20.0391 23.625 17.7188 23.625C13.9746 23.625 10.8105 20.8828 10.2305 17.2969H6.48633C6.01172 18.5625 4.79883 19.4062 3.375 19.4062C1.5293 19.4062 0 17.877 0 16.0312C0 14.1855 1.5293 12.6562 3.375 12.6562C4.79883 12.6562 6.01172 13.5527 6.48633 14.7656H10.2305C10.5996 12.709 11.7598 10.916 13.3945 9.80859L11.9707 6.75C11.918 6.75 11.8652 6.75 11.8125 6.75ZM30.375 5.48438C29.6895 5.48438 29.1094 6.06445 29.1094 6.75C29.1094 7.43555 29.6895 8.01562 30.375 8.01562C31.0605 8.01562 31.6406 7.43555 31.6406 6.75C31.6406 6.06445 31.0605 5.48438 30.375 5.48438ZM29.1094 23.625C29.1094 24.3105 29.6895 24.8906 30.375 24.8906C31.0605 24.8906 31.6406 24.3105 31.6406 23.625C31.6406 22.9395 31.0605 22.3594 30.375 22.3594C29.6895 22.3594 29.1094 22.9395 29.1094 23.625ZM3.375 14.7656C2.68945 14.7656 2.10938 15.3457 2.10938 16.0312C2.10938 16.7168 2.68945 17.2969 3.375 17.2969C4.06055 17.2969 4.64062 16.7168 4.64062 16.0312C4.64062 15.3457 4.06055 14.7656 3.375 14.7656ZM17.7188 10.9688C14.9238 10.9688 12.6562 13.2363 12.6562 16.0312C12.6562 18.8262 14.9238 21.0938 17.7188 21.0938C20.5137 21.0938 22.7812 18.8262 22.7812 16.0312C22.7812 13.2363 20.5137 10.9688 17.7188 10.9688Z" fill="#F99746"/>
</svg>
