<svg width="27" height="29" viewBox="0 0 27 29" fill="none" xmlns="http://www.w3.org/2000/svg">
<path d="M14.5312 1.40625V15.8203L18.2227 12.1289C18.75 11.6016 19.6875 11.6016 20.2148 12.1289C20.7422 12.6562 20.7422 13.5938 20.2148 14.1211L14.1211 20.2148C13.5938 20.7422 12.6562 20.7422 12.1289 20.2148L6.03516 14.1211C5.50781 13.5938 5.50781 12.7148 6.03516 12.1289C6.5625 11.6016 7.5 11.6016 8.02734 12.1289L11.7188 15.8203V1.40625C11.7188 0.644531 12.3633 0 13.125 0C13.8867 0 14.5312 0.644531 14.5312 1.40625ZM3.86719 15.9375L6.67969 18.75H3.75C3.22266 18.75 2.8125 19.1602 2.8125 19.6875V24.375C2.8125 24.9023 3.22266 25.3125 3.75 25.3125H22.5C23.0273 25.3125 23.4375 24.9023 23.4375 24.375V19.6875C23.4375 19.1602 23.0273 18.75 22.5 18.75H19.5703L22.3828 15.9375H22.5C24.5508 15.9375 26.25 17.6367 26.25 19.6875V24.375C26.25 26.4258 24.5508 28.125 22.5 28.125H3.75C1.69922 28.125 0 26.4258 0 24.375V19.6875C0 17.6367 1.69922 15.9375 3.75 15.9375H3.86719ZM21.5625 22.0312C21.5625 22.793 20.918 23.4375 20.1562 23.4375C19.3945 23.4375 18.75 22.793 18.75 22.0312C18.75 21.2695 19.3945 20.625 20.1562 20.625C20.918 20.625 21.5625 21.2695 21.5625 22.0312Z" fill="#F99746"/>
</svg>
