<svg width="30" height="30" viewBox="0 0 30 30" fill="none" xmlns="http://www.w3.org/2000/svg">
<path d="M27.1875 15C27.1875 8.26172 21.7383 2.8125 15 2.8125C8.26172 2.8125 2.8125 8.26172 2.8125 15C2.8125 21.7383 8.26172 27.1875 15 27.1875C21.7383 27.1875 27.1875 21.7383 27.1875 15ZM0 15C0 6.73828 6.73828 0 15 0C23.2617 0 30 6.73828 30 15C30 23.2617 23.2617 30 15 30C6.73828 30 0 23.2617 0 15ZM15 10.3125C13.9453 10.3125 13.125 11.1328 13.125 12.1875C13.125 12.9492 12.4805 13.5938 11.7188 13.5938C10.957 13.5938 10.3125 12.9492 10.3125 12.1875C10.3125 9.60938 12.4219 7.5 15 7.5C17.5781 7.5 19.6875 9.60938 19.6875 12.1875C19.6875 14.9414 17.5781 16.1133 16.4062 16.582V16.7578C16.4062 17.5781 15.7617 18.1641 15 18.1641C14.2383 18.1641 13.5938 17.5781 13.5938 16.7578V16.2891C13.5938 15.1172 14.4727 14.2383 15.3516 13.9453C15.7617 13.8281 16.1133 13.6523 16.4062 13.3594C16.6992 13.125 16.875 12.7734 16.875 12.1875C16.875 11.1328 16.0547 10.3125 15 10.3125ZM13.125 21.5625C13.125 20.5078 13.9453 19.6875 15 19.6875C16.0547 19.6875 16.875 20.5078 16.875 21.5625C16.875 22.6172 16.0547 23.4375 15 23.4375C13.9453 23.4375 13.125 22.6172 13.125 21.5625Z" fill="#F99746"/>
</svg>
