<svg width="32" height="23" viewBox="0 0 32 23" fill="none" xmlns="http://www.w3.org/2000/svg">
<path d="M3.75 2.8125C3.22266 2.8125 2.8125 3.22266 2.8125 3.75V18.75C2.8125 19.2773 3.22266 19.6875 3.75 19.6875H18.75C19.2773 19.6875 19.6875 19.2773 19.6875 18.75V3.75C19.6875 3.22266 19.2773 2.8125 18.75 2.8125H3.75ZM0 3.75C0 1.69922 1.69922 0 3.75 0H18.75C20.8008 0 22.5 1.69922 22.5 3.75V18.75C22.5 20.8008 20.8008 22.5 18.75 22.5H3.75C1.69922 22.5 0 20.8008 0 18.75V3.75ZM29.6484 3.10547C29.8828 2.92969 30.1758 2.8125 30.4688 2.8125C31.2305 2.8125 31.875 3.45703 31.875 4.21875V18.2812C31.875 19.043 31.2305 19.6875 30.4688 19.6875C30.1758 19.6875 29.8828 19.5703 29.6484 19.3945L25.3125 16.1719V12.6562L29.0625 15.4688V7.03125L25.3125 9.84375V6.32812L29.6484 3.10547Z" fill="#F99746"/>
</svg>
