<svg width="1400" height="263" viewBox="0 0 1400 263" fill="none" xmlns="http://www.w3.org/2000/svg">
<g clip-path="url(#clip0_273_10137)">
<g clip-path="url(#clip1_273_10137)">
<g opacity="0.62">
<g opacity="0.5">
<path d="M-250.596 214.446C-193.536 151.938 -112.754 112.116 -29.3978 83.0543C41.2358 58.4409 115.741 40.521 192.651 39.123C451.272 34.4206 688.767 212.667 947.941 242.046C1002.83 248.273 1058.81 247.553 1110.5 233.404C1225.41 201.949 1306.73 106.354 1343 0.148193" stroke="#F99746" stroke-width="1.5" stroke-miterlimit="10"/>
<path d="M1381.46 20.8005C1329.21 105.295 1239.79 181.889 1116.93 217.644C1060.57 234.124 1003 244.694 944.218 241.622C705.404 229.21 485.291 73.6707 246.924 67.6338C150.888 65.1979 60.5962 49.841 -32.5465 88.6251C-113.903 122.516 -192.578 163.99 -249.404 227.473" stroke="#F99746" stroke-width="1.5" stroke-miterlimit="10"/>
<path d="M1419.95 41.4319C1351.7 104.215 1254.2 161.83 1123.38 201.864C1062.4 220.652 1003.51 240.839 940.537 241.199C722.935 242.406 519.119 108.706 301.218 96.1448C185.864 89.4937 79.8715 40.4152 -35.6952 94.1961C-115.52 131.37 -191.621 176.043 -248.213 240.5" stroke="#F99746" stroke-width="1.5" stroke-miterlimit="10"/>
<path d="M1458.42 62.063C1374.19 103.156 1268.58 141.749 1129.8 186.083C1064.19 207.202 1004.17 236.666 936.835 240.775C740.891 252.743 552.946 141.326 355.513 124.677C220.756 113.302 98.8277 30.2265 -38.8227 99.788C-117.434 139.525 -190.664 188.096 -247.021 253.527" stroke="#F99746" stroke-width="1.5" stroke-miterlimit="10"/>
<path d="M1496.9 82.6943C1396.68 102.076 1282.98 121.69 1136.27 170.303C1066.02 193.73 1004.98 231.963 933.155 240.33C758.975 260.623 586.859 172.421 409.807 153.167C255.668 136.391 117.401 19.2544 -41.9501 105.338C-119.562 147.278 -189.706 200.169 -245.83 266.554" stroke="#F99746" stroke-width="1.5" stroke-miterlimit="10"/>
<path d="M1535.37 103.325C1419.14 101.017 1297.36 101.631 1142.69 154.522C1067.81 180.279 1005.7 226.583 929.453 239.907C776.91 266.553 620.856 202.563 464.101 181.677C290.666 158.589 135.549 7.62544 -45.0776 110.93C-121.817 154.819 -188.728 212.222 -244.639 279.602" stroke="#F99746" stroke-width="1.5" stroke-miterlimit="10"/>
<path d="M1573.86 123.957C1441.65 99.9362 1311.79 81.5503 1149.14 138.742C1069.61 166.808 1006.19 220.207 925.772 239.462C794.441 270.896 655.046 232.006 518.395 210.188C325.919 179.474 153.228 -4.68136 -48.2263 116.501C-124.221 162.232 -187.77 224.274 -243.447 292.628" stroke="#F99746" stroke-width="1.5" stroke-miterlimit="10"/>
<path d="M1612.32 144.609C1464.12 98.8773 1326.17 61.5124 1155.57 122.982C1071.4 153.378 1006.13 212.455 922.049 239.059C811.227 274.137 689.384 261.025 572.668 238.72C361.597 198.411 170.419 -17.6445 -51.3538 122.072C-126.71 169.54 -186.813 236.327 -242.256 305.655" stroke="#F99746" stroke-width="1.5" stroke-miterlimit="10"/>
<path d="M1650.81 165.24C1486.63 97.8181 1340.57 41.4318 1162.01 107.223C1073.23 139.928 1004.98 202.648 918.368 238.657C826.907 276.657 724.084 289.726 626.984 267.274C398.105 214.319 187.141 -31.2223 -54.5025 127.663C-129.285 176.827 -185.855 248.401 -241.043 318.682" stroke="#F99746" stroke-width="1.5" stroke-miterlimit="10"/>
</g>
</g>
</g>
</g>
<defs>
<clipPath id="clip0_273_10137">
<rect width="1400" height="263" fill="white"/>
</clipPath>
<clipPath id="clip1_273_10137">
<rect width="1902" height="319" fill="white" transform="translate(-251)"/>
</clipPath>
</defs>
</svg>
