<svg width="394" height="143" viewBox="0 0 394 143" fill="none" xmlns="http://www.w3.org/2000/svg">
<path opacity="0.2" d="M261.589 282.664C321.044 252.012 343.314 190.405 339.807 141.295C339.039 130.545 332.885 62.5528 266.491 23.4344C204.894 -12.856 128.738 -2.32654 80.5433 23.4344C55.6599 36.734 41.0787 52.5721 35.261 59.4209C-3.23432 104.737 -15.3105 177.04 25.0342 231.588C57.126 274.978 108.216 287.977 125.303 292.325C142.938 296.812 204.004 312.35 261.587 282.664H261.589Z" fill="url(#paint0_linear_98_610)"/>
<path opacity="0.2" d="M163.968 307.285C233.777 324.782 307.547 309.59 352.394 266.406C425.598 195.913 390.79 80.6246 335.477 38.4044C323.704 29.4177 311.434 24.0719 307.847 22.5627C247.723 -2.7308 183.726 22.1482 166.293 28.9259C147.456 36.2486 83.0941 61.3971 61.1146 120.85C52.9521 142.928 51.2482 167.895 58.0979 195.209C68.1571 235.318 91.5917 260.762 97.1013 266.308C121.545 290.918 149.257 302.315 163.968 307.285Z" fill="url(#paint1_linear_98_610)"/>
<defs>
<linearGradient id="paint0_linear_98_610" x1="170.081" y1="300.4" x2="170.081" y2="-0.000196958" gradientUnits="userSpaceOnUse">
<stop stop-color="#F99746"/>
<stop offset="1" stop-color="#F99746"/>
</linearGradient>
<linearGradient id="paint1_linear_98_610" x1="223.92" y1="314.402" x2="223.92" y2="11.4554" gradientUnits="userSpaceOnUse">
<stop stop-color="#F99746"/>
<stop offset="1" stop-color="#F99746"/>
</linearGradient>
</defs>
</svg>
