<svg width="394" height="163" viewBox="0 0 394 163" fill="none" xmlns="http://www.w3.org/2000/svg">
<path opacity="0.2" d="M261.589 130.664C321.044 100.012 343.314 38.4048 339.807 -10.7051C339.039 -21.4552 332.885 -89.4472 266.491 -128.566C204.894 -164.856 128.738 -154.327 80.5433 -128.566C55.6599 -115.266 41.0787 -99.4279 35.261 -92.5791C-3.23432 -47.2632 -15.3105 25.0401 25.0342 79.5878C57.126 122.978 108.216 135.977 125.303 140.325C142.938 144.812 204.004 160.35 261.587 130.664H261.589Z" fill="url(#paint0_linear_19_24)"/>
<path opacity="0.2" d="M163.968 155.285C233.777 172.782 307.547 157.59 352.394 114.406C425.598 43.9135 390.79 -71.3754 335.477 -113.596C323.704 -122.582 311.434 -127.928 307.847 -129.437C247.723 -154.731 183.726 -129.852 166.293 -123.074C147.456 -115.751 83.0941 -90.6029 61.1146 -31.1502C52.9521 -9.07213 51.2482 15.8951 58.0979 43.209C68.1571 83.3182 91.5917 108.762 97.1013 114.308C121.545 138.918 149.257 150.315 163.968 155.285Z" fill="url(#paint1_linear_19_24)"/>
<defs>
<linearGradient id="paint0_linear_19_24" x1="170.081" y1="148.4" x2="170.081" y2="-152" gradientUnits="userSpaceOnUse">
<stop stop-color="#7094FB"/>
<stop offset="1" stop-color="#005CA9"/>
</linearGradient>
<linearGradient id="paint1_linear_19_24" x1="223.92" y1="162.402" x2="223.92" y2="-140.545" gradientUnits="userSpaceOnUse">
<stop stop-color="#7094FB"/>
<stop offset="1" stop-color="#2B478B"/>
</linearGradient>
</defs>
</svg>
