<svg width="18" height="19" viewBox="0 0 18 19" fill="none" xmlns="http://www.w3.org/2000/svg">
<path d="M4.6875 0C5.19531 0 5.625 0.429688 5.625 0.9375V2.5H11.875V0.9375C11.875 0.429688 12.3047 0 12.8125 0C13.3203 0 13.75 0.429688 13.75 0.9375V2.5H15C16.3672 2.5 17.5 3.63281 17.5 5V16.25C17.5 17.6172 16.3672 18.75 15 18.75H2.5C1.13281 18.75 0 17.6172 0 16.25V5C0 3.63281 1.13281 2.5 2.5 2.5H3.75V0.9375C3.75 0.429688 4.17969 0 4.6875 0ZM15 16.875C15.3516 16.875 15.625 16.6016 15.625 16.25V13.75H12.1875V16.875H15ZM15.625 11.875V8.75H12.1875V11.875H15.625ZM10.3125 11.875V8.75H7.1875V11.875H10.3125ZM5.3125 11.875V8.75H1.875V11.875H5.3125ZM1.875 13.75V16.25C1.875 16.6016 2.14844 16.875 2.5 16.875H5.3125V13.75H1.875ZM7.1875 13.75V16.875H10.3125V13.75H7.1875ZM4.6875 4.375H2.5C2.14844 4.375 1.875 4.64844 1.875 5V6.875H15.625V5C15.625 4.64844 15.3516 4.375 15 4.375H4.6875Z" fill="#0D3757"/>
</svg>
