<svg width="178" height="179" viewBox="0 0 178 179" fill="none" xmlns="http://www.w3.org/2000/svg">
<path d="M119.923 126.28C116.126 126.395 112.334 126.578 108.54 126.785C106.578 126.892 104.615 126.971 102.653 127.054C98.1827 127.242 93.7123 127.465 89.2388 127.599C86.5324 127.68 83.8215 127.648 81.112 127.616C77.9639 127.577 74.8297 127.794 71.6908 127.961C71.1239 127.992 70.5554 127.99 69.987 127.99C67.9341 127.985 65.8827 128.016 63.8297 128.099C61.298 128.203 58.7693 127.846 56.2344 127.987C55.1917 128.045 54.1521 128.19 53.0986 128.03C52.5302 127.944 51.9849 127.832 51.4689 127.586C51.4689 127.399 51.6172 127.338 51.7501 127.264C55.0264 125.436 57.8671 123.081 60.4329 120.357C62.628 118.027 64.5264 115.474 66.4156 112.905C67.605 111.289 68.5149 109.523 69.3876 107.735C69.9113 106.663 70.5863 105.67 71.0219 104.555C71.5811 103.799 72.0028 102.965 72.4106 102.124C73.1984 100.502 73.8828 98.823 74.7663 97.2555C76.5613 94.07 78.1477 90.7954 79.4607 87.3858C79.9828 86.0302 80.715 84.7606 81.1028 83.3451C81.7036 81.1483 82.3555 78.9668 83.1016 76.8113C84.7004 72.1904 85.7446 67.4236 86.758 62.6507C87.2214 60.4677 87.6616 58.28 87.9242 56.0632C88.1606 54.8964 88.2023 53.7036 88.3784 52.5353C88.658 50.6685 88.7336 48.7925 88.8341 46.9196C88.9623 44.517 88.8727 42.1067 88.573 39.7211C88.3289 37.776 88.0957 35.814 87.2276 34.004C87.0901 33.7169 86.9572 33.4053 87.0437 33.0645C90.4514 36.336 93.8065 39.6627 97.4675 42.664C98.6136 43.6036 99.6903 44.6214 100.665 45.7436C101.25 46.416 101.888 47.0455 102.534 47.6641C106.564 51.5236 110.279 55.6901 114.282 59.5757C119.693 64.8276 125.073 70.1102 130.535 75.3084C133.847 78.4601 137.292 81.4753 140.673 84.5579C143.057 86.7302 145.412 88.9317 147.821 91.0748C148.874 92.0128 150.008 92.8679 151.149 93.7031C151.608 94.0393 151.832 94.4845 152.036 94.9512C152.861 96.8425 153.13 98.8491 152.949 100.874C152.195 109.304 148.358 116.333 142.825 122.568C142.087 123.4 141.239 124.118 140.327 124.766C139.828 125.121 139.312 125.285 138.685 125.276C138.001 125.265 137.292 125.102 136.628 125.419C136.598 125.161 136.414 125.144 136.204 125.119C133.898 124.837 131.601 124.978 129.315 125.311C127.426 125.588 125.536 125.833 123.627 125.91C122.585 125.953 121.542 126.011 120.498 126.03C120.244 126.034 120.111 126.191 119.925 126.281L119.923 126.28Z" fill="#233862"/>
<path d="M87.0422 33.0627C86.9557 33.4035 87.0886 33.7167 87.2261 34.0022C88.0926 35.8122 88.3259 37.7757 88.5715 39.7193C88.8712 42.1065 88.9608 44.5152 88.8326 46.9178C88.8449 50.4795 88.7105 50.4411 88.5576 52.4844C87.2878 69.304 79.6878 88.9146 71.8639 104.446C70.9895 106.235 67.6051 111.287 66.4156 112.902C64.5265 115.47 62.628 118.022 60.433 120.354C57.8672 123.077 55.0265 125.432 51.7501 127.261C51.6173 127.334 51.4705 127.396 51.469 127.583C47.5392 126.567 44.2135 124.674 42.5498 120.807C41.2661 117.825 40.0412 114.807 39.8805 111.465C39.7817 109.393 39.3692 107.334 39.0742 105.272C38.963 104.491 39.0139 103.711 39.0109 102.931C38.9923 99.3677 38.9506 95.7984 39.6627 92.2843C41.002 85.6707 42.247 79.0341 44.3648 72.6016C46.4517 66.2613 48.7596 60.01 51.8737 54.0841C54.0085 50.022 56.2962 46.0428 58.8527 42.2263C60.0545 40.4332 61.4818 38.8181 63.1918 37.4626C63.9595 36.8546 64.6593 36.1622 65.3946 35.5129C67.4645 33.6875 69.8619 32.3181 72.1543 30.8106C73.5337 29.9033 75.1572 29.4811 76.8085 29.3798C79.3017 29.2262 81.7732 29.2017 84.098 30.439C85.3214 31.09 86.2065 32.0264 87.0438 33.0596L87.0422 33.0627Z" fill="#407084"/>
<path d="M121.836 169.649C121.048 169.322 120.245 172.852 118.144 170.419C117.535 169.714 117.145 172.743 116.504 172.082C115.232 170.77 115.183 173.494 114.044 172.082C111.584 172.892 109.942 174.92 107.892 173.703C106.73 172.561 104.142 174.833 102.972 173.703C102.804 173.541 120.113 126.196 119.841 126.174C119.867 125.952 119.895 125.729 119.921 125.508C120.108 125.417 120.241 125.261 120.494 125.256C121.537 125.239 122.58 125.179 123.624 125.136C125.533 125.06 127.424 124.812 129.312 124.538C131.598 124.203 133.893 124.062 136.201 124.346C136.411 124.372 136.596 124.387 136.624 124.645C136.544 125.328 136.186 125.912 135.945 126.538C135.015 128.953 134.454 131.477 133.729 133.951C133.193 135.778 132.588 137.585 131.854 139.346L121.836 169.649Z" fill="#233862"/>
<path d="M63.5301 58.759C59.7116 57.2299 53.6964 63.1911 50.0942 72.0737C46.4934 80.9564 46.6695 89.3968 50.4896 90.9274C50.4896 90.9274 62.9678 97.7621 72.1929 103.794C78.1508 91.8946 84.0887 77.7094 86.7981 64.2304C76.1906 62.055 63.5301 58.7605 63.5301 58.7605V58.759Z" fill="#F99746"/>
<path d="M63.9249 77.6075C67.5253 68.7245 67.348 60.284 63.5291 58.7551C59.7101 57.2263 53.6955 63.1881 50.0951 72.0711C46.4948 80.9541 46.672 89.3946 50.491 90.9235C54.31 92.4523 60.3246 86.4906 63.9249 77.6075Z" fill="#FFCCA3"/>
<circle cx="89" cy="89.3093" r="87" stroke="#0D3757" stroke-width="4"/>
</svg>
