<svg width="45" height="35" viewBox="0 0 45 35" fill="none" xmlns="http://www.w3.org/2000/svg">
<path d="M7.5 1.875C7.5 0.859375 8.35938 0 9.375 0C10.3906 0 11.25 0.859375 11.25 1.875H13.125H13.3594C14.2969 1.95312 15 2.8125 15 3.75V7.5H30V3.75V3.59375C30.0781 2.57812 30.9375 1.875 31.875 1.875H33.75C33.75 0.859375 34.6094 0 35.625 0C36.6406 0 37.5 0.859375 37.5 1.875V3.75V3.98438C37.4219 4.92188 36.5625 5.625 35.625 5.625H33.75V10H35.625C36.6406 10 37.5 10.8594 37.5 11.875V16.25H41.25V9.375C41.25 8.35938 42.1094 7.5 43.125 7.5C44.1406 7.5 45 8.35938 45 9.375V18.125C45 19.1406 44.1406 20 43.125 20H40V25.625C40 26.6406 39.1406 27.5 38.125 27.5H35V33.125C35 34.1406 34.1406 35 33.125 35H26.875C25.8594 35 25 34.1406 25 33.125C25 32.1094 25.8594 31.25 26.875 31.25H31.25V27.5H13.75V31.25H18.125C19.1406 31.25 20 32.1094 20 33.125C20 34.1406 19.1406 35 18.125 35H11.875C10.8594 35 10 34.1406 10 33.125V27.5H6.875C5.85938 27.5 5 26.6406 5 25.625V20H1.875C0.859375 20 0 19.1406 0 18.125V9.375C0 8.35938 0.859375 7.5 1.875 7.5C2.89062 7.5 3.75 8.35938 3.75 9.375V16.25H7.5V11.875C7.5 10.8594 8.35938 10 9.375 10H11.25V5.625H9.375C8.35938 5.625 7.5 4.76562 7.5 3.75V1.875ZM15 11.875C15 12.8906 14.1406 13.75 13.125 13.75H11.25V18.125C11.25 19.1406 10.3906 20 9.375 20H8.75V23.75H36.25V20H35.625C34.6094 20 33.75 19.1406 33.75 18.125V13.75H31.875C30.8594 13.75 30 12.8906 30 11.875V11.25H15V11.875ZM15 16.25C15 15.5469 15.5469 15 16.25 15H18.75C19.4531 15 20 15.5469 20 16.25V20C20 20.7031 19.4531 21.25 18.75 21.25H16.25C15.5469 21.25 15 20.7031 15 20V16.25ZM26.25 15H28.75C29.4531 15 30 15.5469 30 16.25V20C30 20.7031 29.4531 21.25 28.75 21.25H26.25C25.5469 21.25 25 20.7031 25 20V16.25C25 15.5469 25.5469 15 26.25 15Z" fill="#F99746"/>
</svg>
