<svg width="35" height="40" viewBox="0 0 35 40" fill="none" xmlns="http://www.w3.org/2000/svg">
<path d="M26.25 28.125C29.2969 25.625 31.25 21.7969 31.25 17.5C31.25 9.92188 25.0781 3.75 17.5 3.75C9.92188 3.75 3.75 9.92188 3.75 17.5C3.75 21.7969 5.70312 25.625 8.75 28.125C8.75 29.4531 8.98438 31.25 9.21875 32.9688C3.75 30 0 24.2188 0 17.5C0 7.8125 7.8125 0 17.5 0C27.1875 0 35 7.8125 35 17.5C35 24.2188 31.25 30 25.7812 32.9688C26.0156 31.25 26.25 29.4531 26.25 28.125ZM25.1562 23.9062C24.5312 22.9688 23.6719 22.2656 22.8125 21.7969C22.6562 21.7188 22.4219 21.5625 22.2656 21.4844C23.2031 20.4688 23.75 19.0625 23.75 17.5C23.75 14.0625 20.9375 11.25 17.5 11.25C14.0625 11.25 11.25 14.0625 11.25 17.5C11.25 19.0625 11.7969 20.4688 12.7344 21.4844C12.5781 21.5625 12.4219 21.6406 12.2656 21.7969C11.3281 22.2656 10.5469 22.9688 9.84375 23.9062C8.35938 22.1875 7.5 19.9219 7.5 17.5C7.5 11.9531 11.9531 7.5 17.5 7.5C23.0469 7.5 27.5 11.9531 27.5 17.5C27.5 19.9219 26.6406 22.1875 25.1562 23.9062ZM13.9844 38.125C13.3594 35.7812 12.3438 30 12.3438 27.3438C12.3438 24.4531 14.8438 23.75 17.5 23.75C20.1562 23.75 22.7344 24.4531 22.7344 27.3438C22.7344 30 21.6406 35.7812 21.0156 38.125C20.625 39.6875 19.0625 40 17.5 40C16.0156 40 14.375 39.6094 13.9844 38.125ZM17.6562 36.25C17.8906 35.2344 18.125 33.75 18.4375 32.2656C18.6719 30.3906 18.9062 28.6719 18.9844 27.6562C18.9062 27.6562 18.8281 27.5781 18.75 27.5781C18.4375 27.5781 18.0469 27.5 17.5 27.5C16.9531 27.5 16.5625 27.5781 16.25 27.5781C16.1719 27.5781 16.0938 27.6562 16.0938 27.6562C16.0938 28.6719 16.3281 30.3906 16.6406 32.2656C16.875 33.75 17.1094 35.2344 17.3438 36.25C17.4219 36.25 17.4219 36.25 17.5 36.25H17.5781H17.6562ZM17.5 14.375C19.2188 14.375 20.625 15.7812 20.625 17.5C20.625 19.2188 19.2188 20.625 17.5 20.625C15.7812 20.625 14.375 19.2188 14.375 17.5C14.375 15.7812 15.7812 14.375 17.5 14.375Z" fill="#F99746"/>
</svg>
