<svg width="403" height="249" viewBox="0 0 403 249" fill="none" xmlns="http://www.w3.org/2000/svg">
<g clip-path="url(#clip0_98_147)">
<path style="mix-blend-mode:multiply" d="M322.909 174.756C367.688 162.672 398.157 131.315 390.964 104.719C383.77 78.1226 341.639 66.3583 296.861 78.4426C252.082 90.527 221.613 121.884 228.806 148.48C235.999 175.076 278.131 186.841 322.909 174.756Z" fill="url(#paint0_radial_98_147)"/>
<path d="M398.418 75.0901L279.564 28.1404L297.544 65.9024L398.418 75.0901Z" fill="white"/>
<path d="M297.544 65.9024L270.415 102.114L398.418 75.0901L297.544 65.9024Z" fill="#ACEAFD"/>
<path d="M270.415 102.114L301.624 85.1091L398.418 75.0901L270.415 102.114Z" fill="#9AB7BE"/>
<path d="M398.418 75.09L306.085 129.369L301.624 85.1091L398.418 75.09Z" fill="white"/>
<path d="M44.3406 223.341L44.3208 223.338C40.8535 222.823 37.2765 222.188 33.6938 221.446C32.9232 221.286 32.4248 220.533 32.5852 219.758C32.745 218.988 33.5079 218.496 34.2741 218.65C37.803 219.38 41.3255 220.009 44.7432 220.517C45.5247 220.633 46.0618 221.361 45.9467 222.137C45.8315 222.913 45.1135 223.446 44.3406 223.341ZM54.9748 224.584C54.2266 224.483 53.6821 223.809 53.7444 223.052C53.8107 222.264 54.5 221.682 55.2882 221.748C58.8649 222.051 62.4293 222.221 65.8795 222.265C66.6745 222.282 67.2993 222.921 67.2882 223.711C67.2771 224.501 66.6319 225.129 65.8413 225.118C62.3203 225.075 58.6866 224.895 55.0448 224.589C55.02 224.586 54.9953 224.582 54.9705 224.579L54.9748 224.584ZM23.3605 219.023C23.306 219.015 23.2466 219.007 23.1934 218.99C19.8013 218.107 16.3128 217.116 12.8252 216.043C12.0697 215.81 11.648 215.012 11.8814 214.257C12.1148 213.502 12.9136 213.081 13.6691 213.314C17.1128 214.375 20.5622 215.357 23.9111 216.224C24.6763 216.423 25.1311 217.201 24.9366 217.966C24.7552 218.672 24.0691 219.119 23.3655 219.024L23.3605 219.023ZM76.3721 224.815C75.7131 224.726 75.1859 224.185 75.1376 223.498C75.083 222.709 75.6797 222.029 76.4635 221.979C80.0234 221.735 83.5588 221.336 86.9772 220.796C87.7555 220.674 88.4864 221.202 88.613 221.98C88.7348 222.758 88.207 223.488 87.428 223.615C83.932 224.17 80.3096 224.577 76.6628 224.829C76.566 224.836 76.4656 224.833 76.3714 224.82L76.3721 224.815ZM2.88424 212.736C2.7901 212.723 2.69235 212.7 2.60089 212.667C-0.697889 211.505 -4.08932 210.244 -7.48556 208.907C-8.21815 208.616 -8.58065 207.79 -8.29475 207.058C-8.0039 206.326 -7.17785 205.964 -6.44458 206.249C-3.08169 207.572 0.280684 208.824 3.54613 209.972C4.29265 210.234 4.68194 211.048 4.41947 211.794C4.19023 212.444 3.53826 212.825 2.87929 212.735L2.88424 212.736ZM97.4923 221.428C96.9374 221.353 96.4522 220.95 96.303 220.375C96.1036 219.612 96.5623 218.832 97.321 218.632C100.742 217.739 104.126 216.665 107.381 215.437C108.12 215.159 108.942 215.532 109.22 216.271C109.499 217.009 109.125 217.831 108.386 218.109C105.042 219.37 101.557 220.476 98.0415 221.397C97.8531 221.447 97.67 221.457 97.4867 221.432L97.4923 221.428ZM-17.0561 204.913C-17.18 204.897 -17.3068 204.864 -17.4303 204.807C-20.648 203.419 -23.9491 201.938 -27.2436 200.408C-27.9602 200.074 -28.2691 199.225 -27.935 198.509C-27.6009 197.793 -26.7519 197.485 -26.0352 197.819C-22.7698 199.34 -19.4928 200.812 -16.2985 202.188C-15.5742 202.502 -15.2385 203.339 -15.5535 204.063C-15.8114 204.663 -16.4368 204.997 -17.0561 204.913ZM117.487 213.871C117.036 213.81 116.624 213.537 116.405 213.104C116.046 212.4 116.329 211.541 117.033 211.188C120.143 209.612 123.214 207.83 126.164 205.905C126.824 205.47 127.711 205.661 128.142 206.319C128.572 206.977 128.386 207.865 127.728 208.295C124.689 210.278 121.525 212.109 118.328 213.733C118.058 213.867 117.769 213.914 117.491 213.876L117.487 213.871ZM135.405 202.201C135.058 202.154 134.724 201.977 134.486 201.683C133.989 201.071 134.085 200.172 134.698 199.675C135.162 199.299 135.616 198.927 136.054 198.563C138.38 196.624 140.567 194.636 142.551 192.651C143.111 192.092 144.014 192.093 144.569 192.652C145.129 193.212 145.128 194.114 144.568 194.669C142.525 196.716 140.271 198.761 137.876 200.755C137.421 201.133 136.962 201.509 136.486 201.893C136.168 202.153 135.772 202.25 135.395 202.199L135.405 202.201ZM150.423 187.057C150.185 187.025 149.95 186.933 149.745 186.774C149.119 186.291 149.003 185.398 149.481 184.772C151.515 182.123 153.389 179.352 155.374 176.056C155.778 175.38 156.655 175.161 157.332 175.57C158.008 175.974 158.228 176.851 157.818 177.526C155.78 180.921 153.849 183.775 151.743 186.51C151.419 186.93 150.908 187.123 150.418 187.056L150.423 187.057ZM161.666 168.897C161.498 168.874 161.328 168.821 161.169 168.734C160.478 168.353 160.222 167.486 160.603 166.797C162.297 163.714 163.985 160.68 165.959 157.469C166.372 156.799 167.249 156.585 167.924 156.999C168.595 157.412 168.809 158.288 168.395 158.963C166.453 162.124 164.786 165.124 163.111 168.175C162.817 168.705 162.235 168.979 161.666 168.902L161.666 168.897ZM172.961 150.769C172.728 150.737 172.503 150.651 172.301 150.498C171.668 150.029 171.537 149.134 172.006 148.502C174.146 145.63 176.388 142.899 178.866 140.139C179.394 139.555 180.294 139.505 180.884 140.029C181.473 140.557 181.518 141.456 180.994 142.045C178.576 144.738 176.387 147.411 174.298 150.209C173.977 150.639 173.456 150.836 172.961 150.769ZM187.191 134.843C186.884 134.801 186.586 134.66 186.351 134.417C185.807 133.849 185.829 132.944 186.398 132.396C188.883 130.025 191.588 127.603 194.43 125.205C195.034 124.697 195.937 124.774 196.445 125.377C196.954 125.981 196.878 126.878 196.274 127.386C193.477 129.75 190.814 132.127 188.373 134.463C188.048 134.777 187.608 134.899 187.196 134.844L187.191 134.843ZM203.597 121.112C203.216 121.061 202.855 120.856 202.613 120.515C202.161 119.869 202.322 118.979 202.969 118.527C205.854 116.518 208.973 114.611 212.243 112.855C212.94 112.481 213.802 112.744 214.178 113.435C214.553 114.131 214.29 114.993 213.598 115.368C210.426 117.071 207.4 118.925 204.604 120.866C204.298 121.076 203.94 121.154 203.598 121.108L203.597 121.112ZM222.407 110.939C221.922 110.874 221.48 110.557 221.278 110.076C220.973 109.349 221.318 108.513 222.045 108.208C225.275 106.861 228.696 105.6 232.21 104.462C232.959 104.221 233.767 104.628 234.008 105.381C234.25 106.13 233.838 106.936 233.088 107.178C229.653 108.291 226.308 109.521 223.147 110.843C222.906 110.946 222.65 110.972 222.407 110.939ZM242.765 104.314C242.2 104.237 241.716 103.829 241.569 103.239C241.38 102.472 241.848 101.699 242.615 101.51C246.029 100.667 249.583 99.9077 253.183 99.2557C253.964 99.1145 254.702 99.6278 254.844 100.403C254.986 101.179 254.472 101.921 253.696 102.063C250.158 102.703 246.661 103.45 243.304 104.281C243.127 104.327 242.944 104.333 242.771 104.309L242.765 104.314ZM263.842 100.467C263.212 100.382 262.7 99.884 262.617 99.2274C262.521 98.4481 263.077 97.7318 263.857 97.6358C265.299 97.4579 266.682 97.3024 267.998 97.1629C268.781 97.0775 269.486 97.6518 269.566 98.4341C269.647 99.2164 269.077 99.9208 268.294 100.001C267 100.134 265.637 100.287 264.21 100.467C264.087 100.48 263.961 100.478 263.842 100.462L263.842 100.467Z" fill="white"/>
</g>
<defs>
<radialGradient id="paint0_radial_98_147" cx="0" cy="0" r="1" gradientTransform="matrix(80.8104 -21.8082 13.0243 48.1568 308.779 126.891)" gradientUnits="userSpaceOnUse">
<stop stop-color="#CCCCCC"/>
<stop offset="0.11" stop-color="#CDCDCD" stop-opacity="0.97"/>
<stop offset="0.25" stop-color="#D1D1D1" stop-opacity="0.89"/>
<stop offset="0.41" stop-color="#D8D8D8" stop-opacity="0.76"/>
<stop offset="0.59" stop-color="#E1E1E1" stop-opacity="0.57"/>
<stop offset="0.78" stop-color="#EDEDED" stop-opacity="0.33"/>
<stop offset="0.97" stop-color="#FCFCFC" stop-opacity="0.05"/>
<stop offset="1" stop-color="white" stop-opacity="0"/>
</radialGradient>
<clipPath id="clip0_98_147">
<rect width="406" height="225" fill="white" transform="translate(0.192688 -9.69067) rotate(7.71177)"/>
</clipPath>
</defs>
</svg>
